PathFileType	4	(X/Y/Z)	D:\TRACE\spotREDO_2-26-24\spot_baseline_5-v60.trc
DataRate	CameraRate	NumFrames	NumMarkers	Units	OrigDataRate	OrigDataStartFrame	OrigNumFrames
100.00	100.00	      31	9	mm	100.00	2626	      7000
Frame#	Time	front left toe			Front right toe			aft left toe			aft right toe			Arm			FL body			FR body			AL Body			AR Body			
		X1	Y1	Z1	X2	Y2	Z2	X3	Y3	Z3	X4	Y4	Z4	X5	Y5	Z5	X6	Y6	Z6	X7	Y7	Z7	X8	Y8	Z8	X9	Y9	Z9	

2626	26.250	-203.34424	21.15100	-98.76852	264.34494	23.11182	-51.29342	-245.09941	21.92850	341.82321	220.79616	25.39855	387.40085	59.64098	809.84174	-289.11157	-25.88232	550.77081	-273.18646	129.49458	554.88763	-260.96796	-104.12780	558.45795	606.89728	44.80377	557.94135	620.92816	
2627	26.260	-203.37370	21.14742	-98.73586	264.35837	23.13723	-51.28498	-245.05833	21.92290	341.95581	220.74785	25.40911	387.41736	60.22824	809.95435	-288.18790	-25.66393	550.88971	-272.33383	129.35197	554.94946	-260.43234	-104.02113	558.42572	607.43024	44.90569	557.88464	621.56519	
2628	26.270	-203.34485	21.14918	-98.63996	264.30252	23.08714	-51.29454	-245.00601	21.96366	341.98145	220.83244	25.40163	387.46408	60.32510	810.06262	-287.66791	-25.69740	551.09406	-271.76801	129.47850	554.94342	-259.59338	-103.87398	558.38232	608.07007	44.91275	557.85815	622.04718	
2629	26.280	-203.37146	21.16271	-98.59695	264.38123	23.15647	-51.26519	-245.00217	21.96051	342.05173	220.82602	25.39121	387.46774	60.31926	810.07159	-287.03372	-25.75062	551.16034	-271.40048	129.63840	554.94281	-259.02145	-103.78835	558.32758	608.63971	45.34593	557.81958	622.89240	
2630	26.290	-203.35893	21.20045	-98.57186	264.33151	23.16924	-51.27237	-244.98306	21.96131	342.02890	220.86658	25.40535	387.50711	60.71142	809.98608	-286.16476	-25.41925	551.07404	-270.38574	129.80818	554.88251	-258.43735	-103.62975	558.37097	609.09119	45.53254	557.81732	623.43152	
2631	26.300	-203.35362	21.25480	-98.50396	264.30518	23.13225	-51.19394	-245.03836	22.06634	342.10458	220.75262	25.41475	387.55811	60.87624	809.98352	-285.54672	-25.38232	551.11084	-269.72568	130.01640	554.70471	-257.77295	-103.42348	558.43048	609.68048	45.49265	558.02435	624.05267	
2632	26.310	-203.36209	21.24941	-98.45312	264.41946	23.03381	-51.03044	-244.99849	22.04930	342.12408	220.77394	25.37728	387.59967	60.96447	809.94550	-285.14423	-25.32601	551.10657	-269.26712	130.23917	554.67047	-256.95181	-103.29401	558.44727	610.36139	45.89146	557.95099	624.77222	
2633	26.320	-203.34105	21.25679	-98.41711	264.30237	22.91488	-50.91980	-244.96831	21.97859	342.18085	220.80901	25.34513	387.63989	61.40559	809.86572	-284.25101	-24.94413	550.93970	-268.28052	130.39607	554.59222	-256.27875	-103.03896	558.41858	611.04266	45.98656	557.90326	625.40076	
2634	26.330	-203.32742	21.24953	-98.39256	264.32913	22.95543	-50.85792	-244.98703	22.00866	342.19727	220.79239	25.33479	387.63669	61.67868	809.79938	-283.63486	-24.74537	550.96118	-267.58038	130.50664	554.56012	-255.68369	-103.03080	558.44159	611.47131	46.47704	557.77405	626.36798	
2635	26.340	-203.31500	21.28826	-98.38340	264.31592	22.91087	-50.77157	-244.95541	22.01309	342.24548	220.77855	25.31547	387.73965	61.88812	809.79242	-282.94327	-24.62853	550.96045	-267.12231	130.93309	554.45105	-254.73384	-102.93391	558.51123	612.33441	46.57032	557.64978	627.03973	
2636	26.350	-203.29376	21.32638	-98.35718	264.36188	22.94227	-50.78213	-244.93587	22.07403	342.24854	220.89043	25.31378	387.73105	62.65285	809.78406	-281.91632	-24.25714	550.98663	-266.06165	131.08919	554.38879	-254.15157	-102.82307	558.38098	613.05078	46.70817	557.60303	627.74573	
2637	26.360	-203.31789	21.35544	-98.34413	264.38742	22.95140	-50.68542	-244.91154	22.11332	342.32550	220.80087	25.33899	387.79443	62.83041	809.70135	-281.44800	-24.08437	550.84576	-265.45044	131.14740	554.35950	-253.51164	-102.56676	558.42822	613.58588	46.84308	557.65845	628.52911	
2638	26.370	-203.26147	21.43322	-98.31759	264.41531	22.88659	-50.59885	-244.89172	22.12780	342.39795	220.85733	25.23178	387.91431	63.16394	809.73962	-280.49472	-23.87684	550.96899	-264.69766	131.65965	554.25177	-252.43549	-102.24689	558.32098	614.38239	47.10749	557.48120	629.29175	
2639	26.380	-203.26228	21.46165	-98.28377	264.44635	22.79918	-50.57605	-244.90211	22.15780	342.42618	220.92522	25.16385	387.90536	63.71006	809.69507	-279.64655	-23.52917	550.96210	-263.91507	131.68271	554.17810	-251.84938	-102.04896	558.32581	615.06403	47.42337	557.35278	630.06775	
2640	26.390	-203.21275	21.51129	-98.24570	264.48029	22.81717	-50.53212	-244.85397	22.21430	342.42117	220.95117	25.09638	387.89536	64.06293	809.81299	-278.99905	-23.32986	551.05450	-263.14609	132.10962	554.22235	-251.01065	-101.81464	558.27545	615.67609	47.67286	557.37415	630.87415	
2641	26.400	-203.12097	21.62054	-98.21481	264.51218	22.85814	-50.46130	-244.84766	22.23344	342.50104	221.00447	25.09904	387.92209	64.50319	809.76630	-278.00848	-23.04053	551.10693	-262.35416	132.57394	554.11908	-250.26151	-101.44571	558.27856	616.66119	47.84397	557.18457	631.57123	
2642	26.410	-203.01485	21.62699	-98.11998	264.57031	22.86989	-50.43551	-244.79810	22.23999	342.62625	221.03876	25.07799	387.95572	64.80956	809.69031	-277.33456	-22.73057	551.16620	-261.54053	132.73036	554.10840	-249.57167	-101.02848	558.18719	617.40161	48.35792	557.07855	632.34082	
2643	26.420	-202.96194	21.69898	-98.00715	264.53995	22.87728	-50.32326	-244.71738	22.26820	342.74982	220.99651	25.05267	387.97742	65.07780	809.69324	-276.47443	-22.32426	551.06293	-260.49152	132.88342	554.06891	-248.74646	-100.84536	558.31305	617.91205	48.72164	556.99524	633.28271	
2644	26.430	-202.96768	21.71556	-97.93446	264.56976	22.80966	-50.25436	-244.74162	22.29131	342.74051	221.05313	25.01501	388.02127	65.36522	809.66479	-275.68674	-22.35070	551.13373	-260.02975	133.12636	553.93933	-247.96356	-100.65811	558.24347	618.82629	49.12206	556.96027	633.85889	
2645	26.440	-202.92897	21.73091	-97.83221	264.54117	22.68034	-50.22256	-244.75349	22.31269	342.81754	221.05504	24.97915	388.03159	65.80288	809.61743	-275.01160	-22.04999	551.04724	-259.13892	133.24527	553.91211	-247.15536	-100.39613	558.21234	619.52277	49.22078	557.07880	634.68896	
2646	26.450	-202.89957	21.73312	-97.79821	264.78900	22.60128	-50.09494	-244.71782	22.33255	342.79877	221.10393	24.94341	388.04611	66.12093	809.51373	-274.18146	-21.81273	551.03082	-258.38879	133.65700	553.86078	-246.35773	-100.24095	558.28900	620.11487	49.59343	557.00458	635.52625	
2647	26.460	-202.83380	21.71277	-97.67304	264.57370	22.61250	-50.11515	-244.72971	22.35757	342.86285	221.11858	24.94478	388.09082	66.43813	809.51764	-273.38022	-21.54848	551.14075	-257.63644	133.78796	553.84314	-245.72130	-98.38187	558.84442	623.01642	50.22590	556.98438	636.59436	
2648	26.470	-202.84001	21.77866	-97.61240	264.58847	22.61189	-50.09542	-244.70082	22.38016	342.87677	221.12904	24.93332	388.12000	66.86449	809.36926	-272.64044	-21.29139	551.10730	-256.70358	133.94481	553.82355	-244.82346	-98.12941	559.01813	623.58618	50.62884	556.98883	637.44476	
2649	26.480	-202.81633	21.82979	-97.56185	264.62845	22.63385	-50.02279	-244.69514	22.41985	342.90582	221.12086	24.93981	388.14380	67.36812	809.30035	-271.72446	-21.21428	551.20044	-256.08533	134.12915	553.63782	-243.98264	-97.88035	559.15179	624.29028	50.83837	556.88251	638.17334	
2650	26.490	-202.83141	21.85342	-97.51350	264.60596	22.56066	-50.03821	-244.69295	22.45849	342.91339	221.09624	24.95269	388.16257	67.67569	809.24573	-270.87811	-20.93477	551.19373	-255.06848	134.37158	553.45563	-243.17166	-97.54904	559.15662	625.41705	51.16208	556.96698	639.04077	
2651	26.500	-202.77586	21.82414	-97.47196	264.79227	22.42059	-49.85458	-244.69597	22.42150	342.91995	221.15605	24.93436	388.17798	68.09553	809.15314	-270.23651	-20.71757	551.24976	-254.29762	134.64017	553.39044	-242.44257	-97.27337	559.26373	626.02856	51.46159	556.84167	639.38281	
2652	26.510	-202.76642	21.90392	-97.41064	264.69760	22.53246	-49.79980	-244.69917	22.47153	342.94873	221.11630	24.91834	388.22061	68.46725	809.19653	-269.40735	-20.42201	551.29218	-253.57634	134.93369	553.39355	-241.58443	-96.96904	559.33319	626.91534	51.70139	556.89136	640.35266	
2653	26.520	-202.79359	22.01591	-97.33803	264.87030	22.47206	-49.66688	-244.70328	22.45397	342.99066	221.13593	24.90763	388.21622	68.41965	809.23297	-268.60281	-20.19678	551.28662	-252.58719	135.17050	553.38739	-240.67737	-96.53642	559.24182	627.90289	52.21093	556.67310	640.94373	
2654	26.530	-202.83351	22.04568	-97.28494	264.64429	22.53877	-49.70950	-244.71718	22.44265	343.01340	221.17329	24.87962	388.31094	68.88612	809.33093	-267.55539	-20.03805	551.40161	-251.80688	135.29234	553.50116	-239.83711	-96.29852	559.29834	628.50629	52.30968	556.80066	641.94299	
2655	26.540	-202.86150	22.05062	-97.24064	264.71292	22.54405	-49.65359	-244.68936	22.46092	343.00015	221.19701	24.86775	388.31036	68.89165	809.57800	-266.66150	-19.75923	551.51288	-250.98982	135.55969	553.54974	-239.02313	-95.73209	559.34393	629.71979	52.69904	556.87427	642.87714	
2656	26.550	-202.86157	22.07669	-97.23646	264.69290	22.55374	-49.66890	-244.72171	22.51268	342.99966	221.23985	24.86884	388.41565	69.40012	809.70667	-265.96991	-19.49531	551.66168	-250.10481	135.81784	553.62732	-238.21277	-95.57590	559.31531	630.35944	53.02593	556.76819	643.61829	
